<?xml version="1.0" encoding="iso-8859-1"?>
<!-- Uploaded to: SVG Repo, www.svgrepo.com, Generator: SVG Repo Mixer Tools -->
<svg height="800px" width="800px" version="1.1" id="Layer_1" xmlns="http://www.w3.org/2000/svg" xmlns:xlink="http://www.w3.org/1999/xlink" 
	 viewBox="0 0 512.001 512.001" xml:space="preserve">
<path style="fill:#9ED368;" d="M512.001,256.006c0,141.395-114.606,255.998-255.996,255.994
	C114.606,512.004,0.001,397.402,0.001,256.006C-0.007,114.61,114.606,0,256.005,0C397.395,0,512.001,114.614,512.001,256.006z"/>
<path style="fill:#8BC052;" d="M512.001,256.005c0-12.612-0.95-24.998-2.713-37.122c-0.087-0.046-0.172-0.098-0.253-0.155
	c-0.214-0.305-107.468-107.817-107.738-108.083c-1.415-1.394-3.394-2.063-5.375-1.785c-2.881,0.4-6.743,0.825-11.419,1.344
	c-40.165,4.447-146.866,16.259-206.256,77.062c-66.828,68.426-40.156,125.237-18.306,153.016c0.784,0.997,1.793,2.165,2.89,3.391
	c-3.828,5.762-19.138,26.807-51.137,47.774c-2.96,1.937-3.785,5.903-1.847,8.86c0.366,0.559,0.915,0.88,1.406,1.282
	c0.039,0.066,107.187,107.289,107.229,107.354c0.098,0.149,0.256,0.222,0.377,0.343c12.131,1.763,24.526,2.715,37.146,2.715
	C397.395,512.004,512.001,397.401,512.001,256.005z"/>
<path style="fill:#F4F6F9;" d="M401.299,110.645c-1.415-1.394-3.394-2.063-5.375-1.785c-2.881,0.4-6.743,0.825-11.419,1.344
	c-40.165,4.447-146.866,16.259-206.256,77.062c-66.828,68.425-40.156,125.237-18.306,153.015c0.784,0.997,1.793,2.165,2.891,3.391
	c-3.828,5.762-19.138,26.807-51.137,47.774c-2.959,1.937-3.785,5.903-1.846,8.86c1.228,1.875,3.271,2.894,5.359,2.894
	c1.203,0,2.419-0.337,3.5-1.046c30.801-20.18,47.03-40.306,53.213-49.081c1.709,1.66,3.301,3.159,4.547,4.268
	c9.266,8.256,32.06,25.122,63.284,25.119c24.565-0.003,54.353-10.444,86.863-43.731c60.103-61.522,71.318-171.89,75.54-213.441
	c0.394-3.866,0.713-7.003,0.997-9.294C403.398,114.02,402.714,112.045,401.299,110.645z M389.42,123.995
	c-3.707,36.471-14.985,147.469-71.963,205.791c-64.122,65.644-114.003,34.453-132.478,17.997c-1.524-1.357-3.467-3.206-5.469-5.188
	c5.815-7.759,12.17-16.701,19.281-26.721c35.969-50.672,90.319-127.247,152.8-149.812c3.322-1.2,5.044-4.868,3.844-8.194
	c-1.2-3.326-4.875-5.053-8.194-3.844c-66.246,23.925-119.791,99.359-158.887,154.441c-6.517,9.183-12.377,17.422-17.74,24.641
	c-0.199-0.241-0.433-0.511-0.604-0.729l-0.003-0.003c-23.525-29.903-39.603-77.801,17.397-136.162
	c56.191-57.529,159.587-68.975,198.51-73.284c1.278-0.141,2.5-0.275,3.657-0.406C389.523,122.998,389.474,123.492,389.42,123.995z"
	/>
</svg>